inDegrees=yes
name=ik_Shooting_orientations
DataType=double
version=3
OpenSimVersion=4.3-2021-08-27-4bc7ad9
endheader
time	pelvis_tilt	pelvis_list	pelvis_rotation	pelvis_tx	pelvis_ty	pelvis_tz	hip_flexion_r	hip_adduction_r	hip_rotation_r	knee_angle_r	knee_angle_r_beta	ankle_angle_r	subtalar_angle_r	mtp_angle_r	hip_flexion_l	hip_adduction_l	hip_rotation_l	knee_angle_l	knee_angle_l_beta	ankle_angle_l	subtalar_angle_l	mtp_angle_l	lumbar_extension	lumbar_bending	lumbar_rotation	arm_flex_r	arm_add_r	arm_rot_r	elbow_flex_r	pro_sup_r	wrist_flex_r	wrist_dev_r	arm_flex_l	arm_add_l	arm_rot_l	elbow_flex_l	pro_sup_l	wrist_flex_l	wrist_dev_l
7.06	1.338755667419713	-1.294207077911188	152.5005996082645	0	0.9399999999999999	0	44.83199920820981	-10.00017348604646	0	59.99344740764168	1.047083186885404	-4.999978171492204	0	0	44.83199920820981	-10.00017348604646	0	59.99344740764168	1.047083186885404	-4.999978171492204	0	0	9.413657003620457	-7.2783200653838	-7.361131582064028	63.53749032211314	-41.22441870977698	82.04365547320207	11.27837892103505	44.99898094325136	0	0	0	-13.85499235742298	0	75.15641544845906	44.99898094325136	0	0
7.07	1.349814728526339	-1.312113124088782	152.485981453151	0	0.9399999999999999	0	44.83516114731911	-10.00016552984038	0	59.99357190656927	1.047085359801606	-4.999979366329779	0	0	44.83516114731911	-10.00016552984038	0	59.99357190656927	1.047085359801606	-4.999979366329779	0	0	9.447140619878361	-7.288540175890763	-7.335848208130614	55.987863237364	-40.30658490281321	73.0723600942039	13.82393562782229	44.99902064248684	0	0	0	-13.86803754434703	0	75.1534748794805	44.99902064248684	0	0
7.08	1.346217167568016	-1.312103398831161	152.4763235214384	0	0.9399999999999999	0	44.83764146323936	-10.00015931625513	0	59.99366859951734	1.047087047411913	-4.999980296424487	0	0	44.83764146323936	-10.00015931625513	0	59.99366859951734	1.047087047411913	-4.999980296424487	0	0	9.442632495123137	-7.275819578835296	-7.319616589407232	45.53763419654463	-37.3910704146945	60.03364920830844	17.26680553509761	44.99905170649223	0	0	0	-13.87826222348299	0	75.15116821265912	44.99905170649223	0	0
7.09	1.346744963136986	-1.320588250756385	152.4866278429524	0	0.9399999999999999	0	44.84096335348269	-10.00015124496557	0	59.99379893743804	1.047089322237769	-4.999981492709751	0	0	44.84096335348269	-10.00015124496557	0	59.99379893743804	1.047089322237769	-4.999981492709751	0	0	9.429986007064176	-7.274984611357629	-7.311806100687959	33.96459166739295	-32.73625754281097	44.38018331221858	22.99494964778117	44.99909236104104	0	0	0	-13.89208789936922	0	75.14807889056043	44.99909236104104	0	0
7.1	1.339932112796111	-1.348375970338486	152.5074576315604	0	0.9399999999999999	0	44.84285980185924	-10.00014681672192	0	59.99387375533229	1.047090628056363	-4.99998214091905	0	0	44.84285980185924	-10.00014681672192	0	59.99387375533229	1.047090628056363	-4.99998214091905	0	0	9.422316783591052	-7.321681281346648	-7.32410321492759	24.47823457433461	-25.21950239626551	30.45137177477564	29.26018321492033	44.99911488174105	0	0	0	-13.90007765677575	0	75.14631521379825	44.99911488174105	0	0
7.11	1.352180001870087	-1.33888460056876	152.4950514191011	0	0.9399999999999999	0	44.84453728161608	-10.00014296015675	0	59.99393989805257	1.047091782464609	-4.999982702367293	0	0	44.84453728161608	-10.00014296015675	0	59.99393989805257	1.047091782464609	-4.999982702367293	0	0	9.425935947212954	-7.269569697690419	-7.292754144159924	20.20358605440173	-16.67491760856461	20.46126197088271	32.86183738516242	44.999134574259	0	0	0	-13.90717433806963	0	75.14475517544652	44.999134574259	0	0
7.12	1.332819393215852	-1.339509576727516	152.4972854621535	0	0.9399999999999999	0	44.84600717155615	-10.00013965369633	0	59.99399808797777	1.047092798070395	-4.999983180448091	0	0	44.84600717155615	-10.00013965369633	0	59.99399808797777	1.047092798070395	-4.999983180448091	0	0	9.389863660175259	-7.274809729820854	-7.293951368988181	20.24562658512325	-9.067500577979905	14.69646740715765	33.32238464614613	44.99915154694285	0	0	0	-13.91343551013943	0	75.14338819332229	44.99915154694285	0	0
7.13	1.342806318016628	-1.337428159790979	152.4900388795829	0	0.9399999999999999	0	44.84610431428803	-10.00013934532227	0	59.99400112360501	1.047092851052085	-4.999983228470696	0	0	44.84610431428803	-10.00013934532227	0	59.99400112360501	1.047092851052085	-4.999983228470696	0	0	9.399206347787226	-7.259473743785466	-7.287560360282813	30.04284214840936	-2.214625011597276	18.24346201704022	20.81748437468821	44.99915302890539	0	0	0	-13.91378599448978	0	75.14329785174414	44.99915302890539	0	0
7.14	1.330904660573254	-1.33928810787502	152.4872037240096	0	0.9399999999999999	0	44.84896484996538	-10.00013316496382	0	59.99411531363796	1.047094844044133	-4.99998411021311	0	0	44.84896484996538	-10.00013316496382	0	59.99411531363796	1.047094844044133	-4.99998411021311	0	0	9.395203372503302	-7.253723473355547	-7.273492323947955	27.9473779030456	-2.931950029396628	12.15535422021091	25.9315767313323	44.99918507634687	0	0	0	-13.92611339472358	0	75.1406375834426	44.99918507634687	0	0
7.15	1.344361902802351	-1.355685595360246	152.476873731101	0	0.9399999999999999	0	44.85048633813006	-10.0001299213898	0	59.99417556936071	1.047095895704888	-4.999984570327052	0	0	44.85048633813006	-10.0001299213898	0	59.99417556936071	1.047095895704888	-4.999984570327052	0	0	9.390108579411823	-7.253505029495208	-7.269132891932026	25.2951961757109	-3.490632253868339	5.646516471349718	31.60286788791248	44.99920196246268	0	0	0	-13.93268414709833	0	75.13922261530386	44.99920196246268	0	0
7.16	1.355807079696696	-1.357830472494721	152.469518658172	0	0.9399999999999999	0	44.85095055898737	-10.00012890388607	0	59.99419359526737	1.04709621031631	-4.999984715665078	0	0	44.85095055898737	-10.00012890388607	0	59.99419359526737	1.04709621031631	-4.999984715665078	0	0	9.416046144814182	-7.234416198530185	-7.253941842796111	25.31901483000231	-4.497743829974976	8.582435937873868	30.37891127595562	44.99920722864717	0	0	0	-13.93466692906916	0	75.13879089478975	44.99920722864717	0	0
7.17	1.341431056592877	-1.359564905905804	152.4972852386778	0	0.9399999999999999	0	44.85149805389584	-10.00012773574487	0	59.99421505629337	1.047096584881875	-4.999984881161168	0	0	44.85149805389584	-10.00012773574487	0	59.99421505629337	1.047096584881875	-4.999984881161168	0	0	9.37391243675002	-7.225999062398403	-7.306327522528591	22.47085165819016	-9.651430052014744	14.17699952808534	31.84117713167286	44.99921331320964	0	0	0	-13.93702605831198	0	75.13828173023907	44.99921331320964	0	0
7.18	1.355403547954727	-1.376680171178679	152.472773387808	0	0.9399999999999999	0	44.85210480477578	-10.0001264018809	0	59.99423841724975	1.04709699260748	-4.999985071543474	0	0	44.85210480477578	-10.0001264018809	0	59.99423841724975	1.04709699260748	-4.999985071543474	0	0	9.400868199246919	-7.221690429837641	-7.257750417968708	18.79973224837402	-18.37280754176647	19.78935973448927	35.34972058016657	44.99922021731899	0	0	0	-13.93960965730743	0	75.1377174583175	44.99922021731899	0	0
7.19	1.366133332470943	-1.385366503215861	152.4710622021702	0	0.9399999999999999	0	44.8526586518751	-10.00012521814505	0	59.99425998334375	1.047097369006827	-4.999985239145572	0	0	44.8526586518751	-10.00012521814505	0	59.99425998334375	1.047097369006827	-4.999985239145572	0	0	9.401657863212993	-7.220257303838477	-7.252487849611416	17.56847851909398	-26.98023540079334	25.36122114394464	37.42422013935774	44.9992263838742	0	0	0	-13.94199147281523	0	75.13720238630385	44.9992263838742	0	0
7.2	1.361422716626783	-1.389504266679327	152.4631457645189	0	0.9399999999999999	0	44.85326029140941	-10.00012388773422	0	59.99428294016286	1.047097769678906	-4.999985429101028	0	0	44.85326029140941	-10.00012388773422	0	59.99428294016286	1.047097769678906	-4.999985429101028	0	0	9.390167639852308	-7.218092573640178	-7.236914811949643	18.7317709663607	-36.28581951684436	31.84432066574092	38.93679052588956	44.99923326520862	0	0	0	-13.94454372100523	0	75.13664286789783	44.99923326520862	0	0
7.21	1.365593126482918	-1.394314715394936	152.4563331366601	0	0.9399999999999999	0	44.8541804093572	-10.00012188607208	0	59.99431832670259	1.047098387290535	-4.999985713626176	0	0	44.8541804093572	-10.00012188607208	0	59.99431832670259	1.047098387290535	-4.999985713626176	0	0	9.3751970291302	-7.2043086604884	-7.239926696548248	22.15487118133799	-48.15799227844546	39.44750018015903	41.56001225073179	44.99924365579241	0	0	0	-13.94847161692748	0	75.13578716788237	44.99924365579241	0	0
7.22	1.368975937518763	-1.397307692774136	152.4561139347438	0	0.9399999999999999	0	44.85506836335892	-10.00011991679904	0	59.99435198753631	1.047098974782913	-4.999985994646035	0	0	44.85506836335892	-10.00011991679904	0	59.99435198753631	1.047098974782913	-4.999985994646035	0	0	9.357241502452391	-7.20455365720336	-7.232832724683446	33.13828395151822	-58.72264067742515	50.85658818683922	42.31768975876938	44.9992538409366	0	0	0	-13.95222931406055	0	75.13496138006461	44.9992538409366	0	0
7.23	1.366134131626274	-1.392547980050958	152.4682516765649	0	0.9399999999999999	0	44.85580161687096	-10.00011813277099	0	59.99437833686652	1.04709943466548	-4.999986254704123	0	0	44.85580161687096	-10.00011813277099	0	59.99437833686652	1.04709943466548	-4.999986254704123	0	0	9.336030530690286	-7.206540600095597	-7.220030880603171	55.9563354199422	-64.20056732400556	71.23576535700205	39.11962145704405	44.99926289783141	0	0	0	-13.95521104151058	0	75.13427946231499	44.99926289783141	0	0
7.24	1.367334398524796	-1.406075047442895	152.4510106676357	0	0.9399999999999999	0	44.8558819713645	-10.00011776565489	0	59.99437981134282	1.047099460399947	-4.999986313912054	0	0	44.8558819713645	-10.00011776565489	0	59.99437981134282	1.047099460399947	-4.999986313912054	0	0	9.232682998768198	-8.139423293567239	-6.975080069662578	74.73789328483512	-59.32674142423622	89.75950443727594	30.85746226571139	44.99926458823938	0	0	0	-13.95541068236901	0	75.13420473378002	44.99926458823938	0	0
7.25	1.366313972111023	-1.406367111393249	152.4650266877911	0	0.9399999999999999	0	44.85596380400983	-10.00011753117798	0	59.9943823708808	1.047099505072312	-4.999986349087599	0	0	44.85596380400983	-10.00011753117798	0	59.9943823708808	1.047099505072312	-4.999986349087599	0	0	9.194217874313287	-8.365469549360522	-6.922866345178466	75.10823858084113	-57.76558214145386	89.81316777171806	29.4626301845948	44.99926574612008	0	0	0	-13.95571370237064	0	75.134128630375	44.99926574612008	0	0
7.26	1.366757807013943	-1.413184885447751	152.4496328251539	0	0.9399999999999999	0	44.85978642475473	-10.00010995881484	0	59.99453343078086	1.047102141564936	-4.999987392802999	0	0	44.85978642475473	-10.00010995881484	0	59.99453343078086	1.047102141564936	-4.999987392802999	0	0	9.329710164662222	-7.225201608207326	-7.172373373380326	62.27330534860608	-60.59348945036399	80.66801664683059	35.54531512343725	44.99930597857942	0	0	0	-13.97250161272317	0	75.13057363225784	44.99930597857942	0	0
7.27	1.370544902503715	-1.420768184982835	152.4523599289099	0	0.9399999999999999	0	44.86222590497735	-10.00010515604913	0	59.99462850732735	1.047103800963713	-4.999988051912601	0	0	44.86222590497735	-10.00010515604913	0	59.99462850732735	1.047103800963713	-4.999988051912601	0	0	9.326393866052491	-7.20680203590376	-7.161528436923607	46.27329782726233	-53.32378116920949	65.27335961365939	34.58088081795307	44.99933156254136	0	0	0	-13.98320468102319	0	75.12830494065508	44.99933156254136	0	0
7.28	1.365298980166782	-1.412596221055589	152.4559445657338	0	0.9399999999999999	0	44.86374226253594	-10.00010227765723	0	59.99468821164879	1.0471048430007	-4.99998844282778	0	0	44.86374226253594	-10.00010227765723	0	59.99468821164879	1.0471048430007	-4.99998844282778	0	0	9.30816880633664	-7.180621509448557	-7.168935220957039	38.75349020107726	-41.68004135652345	55.07041622763062	30.46615994760323	44.99934702372116	0	0	0	-13.98994307378164	0	75.12689474349406	44.99934702372116	0	0
7.29	1.362399944097338	-1.420149668645856	152.4553444503725	0	0.9399999999999999	0	44.86542357328475	-10.00009915687516	0	59.99475475378792	1.047106004380119	-4.999988863677199	0	0	44.86542357328475	-10.00009915687516	0	59.99475475378792	1.047106004380119	-4.999988863677199	0	0	9.299187878160094	-7.187080904221213	-7.178877603583492	34.32099320669658	-30.69234357657107	44.69140390359602	28.11734066698433	44.99936387763427	0	0	0	-13.99746880836357	0	75.12533114142718	44.99936387763427	0	0
